<?xml version="1.0" encoding="UTF-8"?>
<svg version="1.1" xmlns="http://www.w3.org/2000/svg" width="57" height="57">
<path d="M0 0 C6.7128512 3.96058221 12.84196817 10.17860165 15.16015625 17.76953125 C16.68400366 26.45398201 16.39515202 34.53553756 11.5625 42.0625 C6.70099482 48.95476051 1.47410081 52.42529973 -6.4375 55.0625 C-14.80706374 55.77854963 -22.06452128 55.31507949 -29.4375 51.0625 C-32.3125 48.625 -32.3125 48.625 -34.4375 46.0625 C-35.13875 45.27875 -35.84 44.495 -36.5625 43.6875 C-42.15734598 35.85471563 -42.34816878 28.56381093 -41.4375 19.0625 C-40.55271401 15.69936187 -39.29660275 12.99012361 -37.4375 10.0625 C-36.7775 9.010625 -36.1175 7.95875 -35.4375 6.875 C-26.54413995 -2.7459986 -11.8300091 -5.1972083 0 0 Z " fill="#ED3833" transform="translate(41.4375,1.9375)"/>
<path d="M0 0 C5.85494102 3.90329401 10.8435281 7.39208894 16 12 C11.44746941 16.85603263 6.33140264 21.02119396 1 25 C0.67 25 0.34 25 0 25 C0 16.75 0 8.5 0 0 Z " fill="#FEFBFB" transform="translate(23,16)"/>
</svg>
